HIERARCHY
ROOT Hips
{
  OFFSET 0.000000 95.000000 0.000000
  CHANNELS 6 Xposition Yposition Zposition Zrotation Xrotation Yrotation
  JOINT Spine
  {
    OFFSET 0.000000 10.000000 0.000000
    CHANNELS 3 Zrotation Xrotation Yrotation
    JOINT Spine1
    {
      OFFSET 0.000000 12.000000 0.000000
      CHANNELS 3 Zrotation Xrotation Yrotation
      JOINT Spine2
      {
        OFFSET 0.000000 12.000000 0.000000
        CHANNELS 3 Zrotation Xrotation Yrotation
        JOINT Neck
        {
          OFFSET 0.000000 10.000000 0.000000
          CHANNELS 3 Zrotation Xrotation Yrotation
          JOINT Head
          {
            OFFSET 0.000000 8.000000 0.000000
            CHANNELS 3 Zrotation Xrotation Yrotation
            End Site
            {
              OFFSET 0.000000 10.000000 0.000000
            }
          }
        }
        JOINT LeftShoulder
        {
          OFFSET 6.000000 8.000000 0.000000
          CHANNELS 3 Zrotation Xrotation Yrotation
          JOINT LeftArm
          {
            OFFSET 12.000000 0.000000 0.000000
            CHANNELS 3 Zrotation Xrotation Yrotation
            JOINT LeftForeArm
            {
              OFFSET 24.000000 0.000000 0.000000
              CHANNELS 3 Zrotation Xrotation Yrotation
              JOINT LeftHand
              {
                OFFSET 22.000000 0.000000 0.000000
                CHANNELS 3 Zrotation Xrotation Yrotation
                JOINT LeftHandThumb1
                {
                  OFFSET 1.800000 -1.400000 0.500000
                  CHANNELS 3 Zrotation Xrotation Yrotation
                  JOINT LeftHandThumb2
                  {
                    OFFSET 2.400000 0.000000 0.000000
                    CHANNELS 3 Zrotation Xrotation Yrotation
                    JOINT LeftHandThumb3
                    {
                      OFFSET 1.900000 0.000000 0.000000
                      CHANNELS 3 Zrotation Xrotation Yrotation
                      End Site
                      {
                        OFFSET 1.600000 0.000000 0.000000
                      }
                    }
                  }
                }
                JOINT LeftHandIndex1
                {
                  OFFSET 6.600000 1.200000 0.300000
                  CHANNELS 3 Zrotation Xrotation Yrotation
                  JOINT LeftHandIndex2
                  {
                    OFFSET 2.000000 0.000000 0.000000
                    CHANNELS 3 Zrotation Xrotation Yrotation
                    JOINT LeftHandIndex3
                    {
                      OFFSET 1.200000 0.000000 0.000000
                      CHANNELS 3 Zrotation Xrotation Yrotation
                      End Site
                      {
                        OFFSET 1.000000 0.000000 0.000000
                      }
                    }
                  }
                }
                JOINT LeftHandMiddle1
                {
                  OFFSET 7.200000 0.000000 0.300000
                  CHANNELS 3 Zrotation Xrotation Yrotation
                  JOINT LeftHandMiddle2
                  {
                    OFFSET 3.000000 0.000000 0.000000
                    CHANNELS 3 Zrotation Xrotation Yrotation
                    JOINT LeftHandMiddle3
                    {
                      OFFSET 2.000000 0.000000 0.000000
                      CHANNELS 3 Zrotation Xrotation Yrotation
                      End Site
                      {
                        OFFSET 1.600000 0.000000 0.000000
                      }
                    }
                  }
                }
                JOINT LeftHandRing1
                {
                  OFFSET 7.100000 -1.000000 0.400000
                  CHANNELS 3 Zrotation Xrotation Yrotation
                  JOINT LeftHandRing2
                  {
                    OFFSET 2.600000 0.000000 0.000000
                    CHANNELS 3 Zrotation Xrotation Yrotation
                    JOINT LeftHandRing3
                    {
                      OFFSET 1.600000 0.000000 0.000000
                      CHANNELS 3 Zrotation Xrotation Yrotation
                      End Site
                      {
                        OFFSET 1.300000 0.000000 0.000000
                      }
                    }
                  }
                }
                JOINT LeftHandPinky1
                {
                  OFFSET 6.500000 -2.000000 0.500000
                  CHANNELS 3 Zrotation Xrotation Yrotation
                  JOINT LeftHandPinky2
                  {
                    OFFSET 1.900000 0.000000 0.000000
                    CHANNELS 3 Zrotation Xrotation Yrotation
                    JOINT LeftHandPinky3
                    {
                      OFFSET 1.400000 0.000000 0.000000
                      CHANNELS 3 Zrotation Xrotation Yrotation
                      End Site
                      {
                        OFFSET 1.300000 0.000000 0.000000
                      }
                    }
                  }
                }
              }
            }
          }
        }
        JOINT RightShoulder
        {
          OFFSET -6.000000 8.000000 0.000000
          CHANNELS 3 Zrotation Xrotation Yrotation
          JOINT RightArm
          {
            OFFSET -12.000000 0.000000 0.000000
            CHANNELS 3 Zrotation Xrotation Yrotation
            JOINT RightForeArm
            {
              OFFSET -24.000000 0.000000 0.000000
              CHANNELS 3 Zrotation Xrotation Yrotation
              JOINT RightHand
              {
                OFFSET -22.000000 0.000000 0.000000
                CHANNELS 3 Zrotation Xrotation Yrotation
                JOINT RightHandThumb1
                {
                  OFFSET -1.800000 -1.400000 0.500000
                  CHANNELS 3 Zrotation Xrotation Yrotation
                  JOINT RightHandThumb2
                  {
                    OFFSET -2.400000 0.000000 0.000000
                    CHANNELS 3 Zrotation Xrotation Yrotation
                    JOINT RightHandThumb3
                    {
                      OFFSET -1.900000 0.000000 0.000000
                      CHANNELS 3 Zrotation Xrotation Yrotation
                      End Site
                      {
                        OFFSET -1.600000 0.000000 0.000000
                      }
                    }
                  }
                }
                JOINT RightHandIndex1
                {
                  OFFSET -6.600000 1.200000 0.300000
                  CHANNELS 3 Zrotation Xrotation Yrotation
                  JOINT RightHandIndex2
                  {
                    OFFSET -2.000000 0.000000 0.000000
                    CHANNELS 3 Zrotation Xrotation Yrotation
                    JOINT RightHandIndex3
                    {
                      OFFSET -1.200000 0.000000 0.000000
                      CHANNELS 3 Zrotation Xrotation Yrotation
                      End Site
                      {
                        OFFSET -1.000000 0.000000 0.000000
                      }
                    }
                  }
                }
                JOINT RightHandMiddle1
                {
                  OFFSET -7.200000 0.000000 0.300000
                  CHANNELS 3 Zrotation Xrotation Yrotation
                  JOINT RightHandMiddle2
                  {
                    OFFSET -3.000000 0.000000 0.000000
                    CHANNELS 3 Zrotation Xrotation Yrotation
                    JOINT RightHandMiddle3
                    {
                      OFFSET -2.000000 0.000000 0.000000
                      CHANNELS 3 Zrotation Xrotation Yrotation
                      End Site
                      {
                        OFFSET -1.600000 0.000000 0.000000
                      }
                    }
                  }
                }
                JOINT RightHandRing1
                {
                  OFFSET -7.100000 -1.000000 0.400000
                  CHANNELS 3 Zrotation Xrotation Yrotation
                  JOINT RightHandRing2
                  {
                    OFFSET -2.600000 0.000000 0.000000
                    CHANNELS 3 Zrotation Xrotation Yrotation
                    JOINT RightHandRing3
                    {
                      OFFSET -1.600000 0.000000 0.000000
                      CHANNELS 3 Zrotation Xrotation Yrotation
                      End Site
                      {
                        OFFSET -1.300000 0.000000 0.000000
                      }
                    }
                  }
                }
                JOINT RightHandPinky1
                {
                  OFFSET -6.500000 -2.000000 0.500000
                  CHANNELS 3 Zrotation Xrotation Yrotation
                  JOINT RightHandPinky2
                  {
                    OFFSET -1.900000 0.000000 0.000000
                    CHANNELS 3 Zrotation Xrotation Yrotation
                    JOINT RightHandPinky3
                    {
                      OFFSET -1.400000 0.000000 0.000000
                      CHANNELS 3 Zrotation Xrotation Yrotation
                      End Site
                      {
                        OFFSET -1.300000 0.000000 0.000000
                      }
                    }
                  }
                }
              }
            }
          }
        }
      }
    }
  }
  JOINT LeftUpLeg
  {
    OFFSET 10.000000 -5.000000 0.000000
    CHANNELS 3 Zrotation Xrotation Yrotation
    JOINT LeftLeg
    {
      OFFSET 0.000000 -42.000000 0.000000
      CHANNELS 3 Zrotation Xrotation Yrotation
      JOINT LeftFoot
      {
        OFFSET 0.000000 -42.000000 4.000000
        CHANNELS 3 Zrotation Xrotation Yrotation
        End Site
        {
          OFFSET 0.000000 0.000000 12.000000
        }
      }
    }
  }
  JOINT RightUpLeg
  {
    OFFSET -10.000000 -5.000000 0.000000
    CHANNELS 3 Zrotation Xrotation Yrotation
    JOINT RightLeg
    {
      OFFSET 0.000000 -42.000000 0.000000
      CHANNELS 3 Zrotation Xrotation Yrotation
      JOINT RightFoot
      {
        OFFSET 0.000000 -42.000000 4.000000
        CHANNELS 3 Zrotation Xrotation Yrotation
        End Site
        {
          OFFSET 0.000000 0.000000 12.000000
        }
      }
    }
  }
}
MOTION
Frames: 9
Frame Time: 0.033333
0.0000 95.0000 0.0000 0.0000 0.0000 0.0000 0.0000 0.0000 0.0000 0.0000 0.0000 0.0000 0.0000 0.0000 0.0000 0.0000 0.0000 0.0000 0.0000 0.0000 0.0000 0.0000 0.0000 0.0000 -71.2927 -0.2334 -0.3255 -153.2390 13.3071 -344.1140 197.1044 -21.4917 523.5681 71.9427 -14.5032 17.2882 6.0320 0.0000 0.0000 37.5087 0.0000 0.0000 -31.9952 1.3544 -0.6479 40.2309 0.0000 0.0000 15.6768 0.0000 0.0000 -19.5986 -0.2284 -6.0941 31.5269 0.0000 0.0000 14.3513 0.0000 0.0000 -10.2258 -0.8163 -6.0126 18.0743 0.0000 0.0000 13.1563 0.0000 0.0000 -6.5086 -1.8581 -6.3984 16.8192 0.0000 0.0000 8.2626 0.0000 0.0000 0.0000 0.0000 0.0000 75.3519 -17.4284 22.4531 -201.8632 49.4709 -88.5537 323.5121 34.3281 -62.6507 -56.5653 -12.6099 3.9823 9.7733 0.0000 0.0000 5.2330 0.0000 0.0000 -18.3084 21.1828 58.8976 83.0847 0.0000 0.0000 18.1415 0.0000 0.0000 -35.0879 18.5810 59.4900 90.1898 0.0000 0.0000 18.9295 0.0000 0.0000 -46.8218 17.2361 66.2930 91.5785 0.0000 0.0000 24.4341 0.0000 0.0000 -68.9378 17.7946 66.9295 82.2750 0.0000 0.0000 28.4985 0.0000 0.0000 0.0000 0.0000 0.0000 0.0000 0.0000 0.0000 0.0000 0.0000 0.0000 0.0000 0.0000 0.0000 0.0000 0.0000 0.0000 0.0000 0.0000 0.0000
0.0000 95.0000 0.0000 0.0000 0.0000 0.0000 0.0000 0.0000 0.0000 0.0000 0.0000 0.0000 0.0000 0.0000 0.0000 0.0000 0.0000 0.0000 0.0000 0.0000 0.0000 0.0000 0.0000 0.0000 -71.2073 -0.2470 -0.3449 -153.0383 15.0484 -342.0515 205.8920 -3.4076 518.2258 73.2334 -14.9058 0.3039 14.8539 0.0000 0.0000 42.8856 0.0000 0.0000 -46.7086 3.7745 7.2407 20.8306 0.0000 0.0000 10.2318 0.0000 0.0000 -42.5364 2.1269 0.6889 10.7859 0.0000 0.0000 3.6967 0.0000 0.0000 -31.9748 2.4044 1.0689 3.2949 0.0000 0.0000 8.8971 0.0000 0.0000 -20.9751 0.1783 -2.9685 19.7835 0.0000 0.0000 9.7582 0.0000 0.0000 0.0000 0.0000 0.0000 74.6315 -17.5843 22.9409 -201.7243 54.5447 -92.4374 318.6564 39.2578 -70.8855 -63.3508 -13.6916 5.6373 14.2675 0.0000 0.0000 10.5542 0.0000 0.0000 -25.2383 19.4699 47.4216 93.3111 0.0000 0.0000 17.5196 0.0000 0.0000 -56.8187 30.8699 58.8551 74.2209 0.0000 0.0000 21.7799 0.0000 0.0000 -64.6397 32.0574 72.4661 71.3369 0.0000 0.0000 26.1976 0.0000 0.0000 -83.1057 27.8406 68.8635 68.4813 0.0000 0.0000 29.2635 0.0000 0.0000 0.0000 0.0000 0.0000 0.0000 0.0000 0.0000 0.0000 0.0000 0.0000 0.0000 0.0000 0.0000 0.0000 0.0000 0.0000 0.0000 0.0000 0.0000
0.0000 95.0000 0.0000 0.0000 0.0000 0.0000 0.0000 0.0000 0.0000 0.0000 0.0000 0.0000 0.0000 0.0000 0.0000 0.0000 0.0000 0.0000 0.0000 0.0000 0.0000 0.0000 0.0000 0.0000 -71.1639 -0.2794 -0.3905 -153.8113 12.9371 -344.6056 212.0061 -9.2512 511.2262 66.2383 -13.7764 -1.1063 14.7921 0.0000 0.0000 28.9772 0.0000 0.0000 -41.1267 0.9519 -4.8352 28.2337 0.0000 0.0000 14.2761 0.0000 0.0000 -36.1511 -1.7125 -10.0155 22.7049 0.0000 0.0000 16.1447 0.0000 0.0000 -27.1937 -1.6672 -8.2914 27.6866 0.0000 0.0000 24.7189 0.0000 0.0000 -20.3582 -3.1757 -9.4275 18.0955 0.0000 0.0000 11.6650 0.0000 0.0000 0.0000 0.0000 0.0000 74.7427 -16.8335 21.9284 -202.0294 55.3603 -92.1114 329.7806 28.2290 -64.6178 -56.7944 -12.8512 5.4510 8.6243 0.0000 0.0000 2.4829 0.0000 0.0000 -27.0337 18.9157 44.6420 65.6119 0.0000 0.0000 18.6663 0.0000 0.0000 -52.1780 35.2062 70.6552 66.9014 0.0000 0.0000 23.9452 0.0000 0.0000 -54.4562 29.0325 80.9921 72.6580 0.0000 0.0000 28.9366 0.0000 0.0000 -68.5829 21.7805 76.8641 74.1093 0.0000 0.0000 30.5783 0.0000 0.0000 0.0000 0.0000 0.0000 0.0000 0.0000 0.0000 0.0000 0.0000 0.0000 0.0000 0.0000 0.0000 0.0000 0.0000 0.0000 0.0000 0.0000 0.0000
0.0000 95.0000 0.0000 0.0000 0.0000 0.0000 0.0000 0.0000 0.0000 0.0000 0.0000 0.0000 0.0000 0.0000 0.0000 0.0000 0.0000 0.0000 0.0000 0.0000 0.0000 0.0000 0.0000 0.0000 -71.4862 -1.2789 -1.7768 -152.8456 22.3241 -331.0131 217.9583 -25.5624 506.7310 67.9048 -14.0645 -1.5124 11.8827 0.0000 0.0000 32.0899 0.0000 0.0000 -37.7268 -0.7731 -16.1929 29.3968 0.0000 0.0000 11.3702 0.0000 0.0000 -32.6691 -4.2308 -19.1386 20.7350 0.0000 0.0000 14.0416 0.0000 0.0000 -22.3649 -4.9973 -18.1099 18.0975 0.0000 0.0000 25.5153 0.0000 0.0000 -13.8364 -6.7634 -17.7330 15.0937 0.0000 0.0000 11.0070 0.0000 0.0000 0.0000 0.0000 0.0000 74.1759 -16.8508 22.1716 -198.5065 59.6181 -91.8862 320.4056 31.8198 -69.9519 -56.8322 -12.8097 5.1244 7.5891 0.0000 0.0000 17.5960 0.0000 0.0000 -13.1395 8.3189 29.1772 83.8637 0.0000 0.0000 29.6734 0.0000 0.0000 -51.1829 26.5801 57.2760 86.7147 0.0000 0.0000 34.0037 0.0000 0.0000 -54.1481 24.6952 72.7044 81.8626 0.0000 0.0000 39.1539 0.0000 0.0000 -69.3294 19.2326 69.8005 78.6479 0.0000 0.0000 40.6386 0.0000 0.0000 0.0000 0.0000 0.0000 0.0000 0.0000 0.0000 0.0000 0.0000 0.0000 0.0000 0.0000 0.0000 0.0000 0.0000 0.0000 0.0000 0.0000 0.0000
0.0000 95.0000 0.0000 0.0000 0.0000 0.0000 0.0000 0.0000 0.0000 0.0000 0.0000 0.0000 0.0000 0.0000 0.0000 0.0000 0.0000 0.0000 0.0000 0.0000 0.0000 0.0000 0.0000 0.0000 -71.5792 -2.2838 -3.1674 -152.2512 30.1887 -319.3502 214.7533 -30.4632 521.5635 65.8075 -14.0890 -7.1587 13.9443 0.0000 0.0000 41.4847 0.0000 0.0000 -39.0422 0.0988 -10.0548 31.3747 0.0000 0.0000 13.7824 0.0000 0.0000 -35.0726 -2.0701 -11.3165 25.2062 0.0000 0.0000 19.2818 0.0000 0.0000 -22.3814 -2.8857 -12.0618 29.4804 0.0000 0.0000 28.4829 0.0000 0.0000 -11.6028 -3.8312 -11.2939 14.3563 0.0000 0.0000 8.8657 0.0000 0.0000 0.0000 0.0000 0.0000 74.0271 -16.6405 21.9556 -196.4743 62.2747 -91.5942 317.5305 29.0054 -67.2501 -57.2383 -13.3473 8.6484 8.1491 0.0000 0.0000 6.9671 0.0000 0.0000 -9.4343 8.7215 33.6412 66.5573 0.0000 0.0000 37.4928 0.0000 0.0000 -36.7581 18.5967 57.2385 96.2483 0.0000 0.0000 25.8111 0.0000 0.0000 -44.5774 16.7018 68.7390 92.9907 0.0000 0.0000 37.0362 0.0000 0.0000 -61.3826 16.8508 77.6390 78.0107 0.0000 0.0000 43.7033 0.0000 0.0000 0.0000 0.0000 0.0000 0.0000 0.0000 0.0000 0.0000 0.0000 0.0000 0.0000 0.0000 0.0000 0.0000 0.0000 0.0000 0.0000 0.0000 0.0000
0.0000 95.0000 0.0000 0.0000 0.0000 0.0000 0.0000 0.0000 0.0000 0.0000 0.0000 0.0000 0.0000 0.0000 0.0000 0.0000 0.0000 0.0000 0.0000 0.0000 0.0000 0.0000 0.0000 0.0000 -71.7540 -2.0282 -2.8040 -153.2375 28.6509 -322.1666 217.3809 -28.6155 501.9042 74.7623 -15.0316 -9.4726 16.1578 0.0000 0.0000 39.3580 0.0000 0.0000 -29.5203 -0.4142 -21.8977 16.2547 0.0000 0.0000 9.4079 0.0000 0.0000 -19.7447 -4.1549 -28.3199 10.4662 0.0000 0.0000 12.3255 0.0000 0.0000 -13.0996 -5.8799 -25.4135 13.8627 0.0000 0.0000 18.9976 0.0000 0.0000 -6.6720 -8.4667 -24.1812 14.9639 0.0000 0.0000 10.0792 0.0000 0.0000 0.0000 0.0000 0.0000 73.8659 -16.2156 21.4620 -195.0049 64.6983 -91.2717 320.2808 24.8337 -66.1458 -57.0140 -13.3185 8.5997 7.2678 0.0000 0.0000 13.6628 0.0000 0.0000 -19.0832 14.2199 40.9580 57.2766 0.0000 0.0000 32.1248 0.0000 0.0000 -46.8760 28.5955 65.6714 82.5645 0.0000 0.0000 27.4610 0.0000 0.0000 -49.9943 25.7481 81.6137 77.9210 0.0000 0.0000 37.2854 0.0000 0.0000 -64.4010 19.8179 79.5673 75.7563 0.0000 0.0000 42.8213 0.0000 0.0000 0.0000 0.0000 0.0000 0.0000 0.0000 0.0000 0.0000 0.0000 0.0000 0.0000 0.0000 0.0000 0.0000 0.0000 0.0000 0.0000 0.0000 0.0000
0.0000 95.0000 0.0000 0.0000 0.0000 0.0000 0.0000 0.0000 0.0000 0.0000 0.0000 0.0000 0.0000 0.0000 0.0000 0.0000 0.0000 0.0000 0.0000 0.0000 0.0000 0.0000 0.0000 0.0000 -71.8121 -2.2418 -3.0959 -153.3394 31.6424 -318.3782 220.6311 -35.2642 499.5252 77.0468 -15.2975 -7.5933 14.8792 0.0000 0.0000 36.0550 0.0000 0.0000 -28.5803 -0.4254 -24.0055 18.6096 0.0000 0.0000 9.3589 0.0000 0.0000 -22.5976 -4.8363 -28.6408 14.0817 0.0000 0.0000 11.3355 0.0000 0.0000 -12.8036 -6.3141 -27.2605 12.8195 0.0000 0.0000 20.9712 0.0000 0.0000 -3.1464 -8.3362 -25.4346 13.3565 0.0000 0.0000 10.5060 0.0000 0.0000 0.0000 0.0000 0.0000 73.9931 -16.1002 21.2626 -190.1311 66.1139 -87.6838 320.2071 22.9302 -63.7816 -54.9029 -13.1405 8.7997 7.1945 0.0000 0.0000 20.3609 0.0000 0.0000 -14.0202 11.0987 37.0256 69.6340 0.0000 0.0000 37.8584 0.0000 0.0000 -43.4704 25.5092 63.9482 88.5831 0.0000 0.0000 32.1007 0.0000 0.0000 -46.5180 24.0731 84.2210 78.3701 0.0000 0.0000 46.3239 0.0000 0.0000 -61.5709 17.8607 80.0453 76.5416 0.0000 0.0000 50.9982 0.0000 0.0000 0.0000 0.0000 0.0000 0.0000 0.0000 0.0000 0.0000 0.0000 0.0000 0.0000 0.0000 0.0000 0.0000 0.0000 0.0000 0.0000 0.0000 0.0000
0.0000 95.0000 0.0000 0.0000 0.0000 0.0000 0.0000 0.0000 0.0000 0.0000 0.0000 0.0000 0.0000 0.0000 0.0000 0.0000 0.0000 0.0000 0.0000 0.0000 0.0000 0.0000 0.0000 0.0000 -72.0445 -2.1894 -3.0106 -153.1244 32.2013 -317.6095 212.2337 -22.7078 484.6409 82.8973 -15.3990 -13.7691 16.3029 0.0000 0.0000 29.6661 0.0000 0.0000 -18.7156 1.4292 -36.0496 10.1900 0.0000 0.0000 9.8539 0.0000 0.0000 -7.9016 -2.6389 -41.6590 17.5110 0.0000 0.0000 8.3656 0.0000 0.0000 -0.7319 -5.7729 -38.7202 11.9168 0.0000 0.0000 24.2066 0.0000 0.0000 4.8961 -9.7572 -35.6937 19.0455 0.0000 0.0000 16.5762 0.0000 0.0000 0.0000 0.0000 0.0000 74.0525 -15.7700 20.8088 -184.5540 67.8004 -83.3204 316.0148 25.1805 -65.9675 -57.7606 -13.4784 9.2501 7.2376 0.0000 0.0000 16.6227 0.0000 0.0000 -18.1526 11.9024 35.7024 70.7898 0.0000 0.0000 37.9289 0.0000 0.0000 -45.9676 24.1745 58.3503 92.2521 0.0000 0.0000 29.0571 0.0000 0.0000 -50.0807 25.6322 81.2151 79.4846 0.0000 0.0000 45.9520 0.0000 0.0000 -64.3448 21.4466 83.6216 73.4436 0.0000 0.0000 52.7046 0.0000 0.0000 0.0000 0.0000 0.0000 0.0000 0.0000 0.0000 0.0000 0.0000 0.0000 0.0000 0.0000 0.0000 0.0000 0.0000 0.0000 0.0000 0.0000 0.0000
0.0000 95.0000 0.0000 0.0000 0.0000 0.0000 0.0000 0.0000 0.0000 0.0000 0.0000 0.0000 0.0000 0.0000 0.0000 0.0000 0.0000 0.0000 0.0000 0.0000 0.0000 0.0000 0.0000 0.0000 -72.1277 -1.9916 -2.7345 -153.7716 30.5914 -320.2112 203.8898 -17.3693 479.7146 91.9653 -13.4042 -29.1617 14.3349 0.0000 0.0000 31.1745 0.0000 0.0000 -18.0054 1.7874 -42.6250 15.5604 0.0000 0.0000 8.9371 0.0000 0.0000 -8.3838 -3.2641 -47.2585 15.2771 0.0000 0.0000 10.7555 0.0000 0.0000 0.5871 -6.3590 -45.2798 7.4629 0.0000 0.0000 25.7490 0.0000 0.0000 4.6894 -11.1715 -40.5973 10.3425 0.0000 0.0000 15.2871 0.0000 0.0000 0.0000 0.0000 0.0000 74.4384 -15.4515 20.2531 -179.4886 68.0529 -78.6636 317.1077 19.9887 -61.3074 -54.8290 -12.8590 7.0703 7.3624 0.0000 0.0000 12.3372 0.0000 0.0000 -14.4291 10.5387 34.9797 71.6417 0.0000 0.0000 36.0729 0.0000 0.0000 -41.5073 23.2260 61.7158 92.6153 0.0000 0.0000 32.3615 0.0000 0.0000 -45.3420 22.5595 82.9292 81.7520 0.0000 0.0000 49.7946 0.0000 0.0000 -59.6493 18.4532 85.8018 76.0005 0.0000 0.0000 62.2773 0.0000 0.0000 0.0000 0.0000 0.0000 0.0000 0.0000 0.0000 0.0000 0.0000 0.0000 0.0000 0.0000 0.0000 0.0000 0.0000 0.0000 0.0000 0.0000 0.0000
